<svg width="899" height="93" viewBox="0 0 899 93" fill="none" xmlns="http://www.w3.org/2000/svg">
<path d="M0.68 1.39999H54.44C63.4 1.39999 69.8853 3.448 73.896 7.544C77.992 11.5547 80.04 18.04 80.04 27V38.52C80.04 45.6027 78.8453 51.1067 76.456 55.032C74.152 58.9573 70.44 61.56 65.32 62.84L81.32 91H56.36L41.64 64.12H23.72V91H0.68V1.39999ZM57 27C57 21.88 54.44 19.32 49.32 19.32H23.72V46.2H49.32C54.44 46.2 57 43.64 57 38.52V27ZM150.405 25.72C150.405 20.6 147.845 18.04 142.725 18.04H120.965C115.845 18.04 113.285 20.6 113.285 25.72V66.68C113.285 71.8 115.845 74.36 120.965 74.36H142.725C147.845 74.36 150.405 71.8 150.405 66.68V25.72ZM173.445 66.68C173.445 75.64 171.397 82.168 167.301 86.264C163.29 90.2747 156.805 92.28 147.845 92.28H115.845C106.885 92.28 100.357 90.2747 96.261 86.264C92.2503 82.168 90.245 75.64 90.245 66.68V25.72C90.245 16.76 92.2503 10.2747 96.261 6.26399C100.357 2.16799 106.885 0.119995 115.845 0.119995H147.845C156.805 0.119995 163.29 2.16799 167.301 6.26399C171.397 10.2747 173.445 16.76 173.445 25.72V66.68ZM255.425 89.72C236.396 91.4267 220.609 92.28 208.065 92.28C199.702 92.28 193.558 90.3173 189.633 86.392C185.708 82.4667 183.745 76.3227 183.745 67.96V27C183.745 18.04 185.75 11.5547 189.761 7.544C193.857 3.448 200.385 1.39999 209.345 1.39999H255.425V19.32H214.465C209.345 19.32 206.785 21.88 206.785 27V67.96C206.785 69.9227 207.34 71.5013 208.449 72.696C209.644 73.8053 211.137 74.36 212.929 74.36C214.721 74.36 216.684 74.36 218.817 74.36C220.95 74.2747 223.169 74.1893 225.473 74.104C227.777 74.0187 230.081 73.9333 232.385 73.848C234.774 73.7627 237.804 73.592 241.473 73.336C245.228 73.08 249.878 72.7813 255.425 72.44V89.72ZM288.72 91H265.68V1.39999H288.72V36.6H300.24L320.208 1.39999H344.528L319.44 45.56L344.4 91H320.08L300.24 54.52H288.72V91ZM423.22 91H352.18V1.39999H423.22V19.32H375.22V36.6H412.98V54.52H375.22V73.08H423.22V91ZM433.43 1.39999H487.19C496.15 1.39999 502.635 3.448 506.646 7.544C510.742 11.5547 512.79 18.04 512.79 27V38.52C512.79 45.6027 511.595 51.1067 509.206 55.032C506.902 58.9573 503.19 61.56 498.07 62.84L514.07 91H489.11L474.39 64.12H456.47V91H433.43V1.39999ZM489.75 27C489.75 21.88 487.19 19.32 482.07 19.32H456.47V46.2H482.07C487.19 46.2 489.75 43.64 489.75 38.52V27ZM522.867 72.44C546.248 73.72 562.078 74.36 570.355 74.36C572.318 74.36 573.854 73.8053 574.963 72.696C576.158 71.5013 576.755 69.9227 576.755 67.96V56.44H547.315C538.355 56.44 531.827 54.4347 527.731 50.424C523.72 46.328 521.715 39.8 521.715 30.84V27C521.715 18.04 523.72 11.5547 527.731 7.544C531.827 3.448 538.355 1.39999 547.315 1.39999H592.243V19.32H552.435C547.315 19.32 544.755 21.88 544.755 27V29.56C544.755 34.68 547.315 37.24 552.435 37.24H575.475C583.838 37.24 589.982 39.2027 593.907 43.128C597.832 47.0533 599.795 53.1973 599.795 61.56V67.96C599.795 76.3227 597.832 82.4667 593.907 86.392C589.982 90.3173 583.838 92.28 575.475 92.28C571.123 92.28 566.515 92.1947 561.651 92.024L549.875 91.512C541.171 91.0853 532.168 90.488 522.867 89.72V72.44ZM672.72 73.08H719.44V91H649.68V1.39999H672.72V73.08ZM744.43 91H719.47L753.39 1.39999H778.99L812.91 91H787.95L782.19 75H750.19L744.43 91ZM755.95 58.36H776.43L766.19 28.28L755.95 58.36ZM819.305 1.39999H870.505C878.868 1.39999 885.012 3.31999 888.937 7.16C892.862 10.9147 894.825 16.6747 894.825 24.44C894.825 29.56 893.716 33.7413 891.497 36.984C889.278 40.1413 886.548 42.36 883.305 43.64C890.217 45.5173 894.91 50.1253 897.385 57.464C898.238 60.1093 898.665 63.1813 898.665 66.68C898.665 75.0427 896.702 81.1867 892.777 85.112C888.852 89.0373 882.708 91 874.345 91H819.305V1.39999ZM875.625 62.84C875.625 57.72 873.065 55.16 867.945 55.16H842.345V73.08H867.945C873.065 73.08 875.625 70.52 875.625 65.4V62.84ZM871.785 27C871.785 21.88 869.225 19.32 864.105 19.32H842.345V37.24H864.105C869.225 37.24 871.785 34.68 871.785 29.56V27Z" fill="#F8CA00"/>
</svg>
